"Vikings" handlar om Ragnar Lodbrok, en av sin tids stora hjältar. Serien följer både hans familj och Ragnars väg mot vikingakonungens tron. Ragnar var inte bara en krigare utan fruktan, utan också man som tillbad gudarna. Enligt legenden var han i direkt nedstigande led släkt med Oden, kriget och krigarnas gud.


Format                                   : Matroska
Format version                           : Version 4 / Version 2
File size                                : 901 MiB
Duration                                 : 44mn 32s
Overall bit rate                         : 2 827 Kbps
Encoded date                             : UTC 2013-03-08 16:42:44
Writing application                      : mkvmerge v6.1.0 ('Old Devil') built on Mar  2 2013 14:32:37
Writing library                          : libebml v1.3.0 + libmatroska v1.4.0

Video
ID                                       : 1
Format                                   : AVC
Format/Info                              : Advanced Video Codec
Format profile                           : High@L4.1
Format settings, CABAC                   : Yes
Format settings, ReFrames                : 5 frames
Codec ID                                 : V_MPEG4/ISO/AVC
Duration                                 : 44mn 32s
Bit rate                                 : 2 387 Kbps
Width                                    : 1 280 pixels
Height                                   : 720 pixels
Display aspect ratio                     : 16:9
Frame rate mode                          : Constant
Frame rate                               : 23.976 fps
Color space                              : YUV
Chroma subsampling                       : 4:2:0
Bit depth                                : 8 bits
Scan type                                : Progressive
Bits/(Pixel*Frame)                       : 0.108
Stream size                              : 760 MiB (84%)
Writing library                          : x264 core 130 r2273 b3065e6
Encoding settings                        : cabac=1 / ref=5 / deblock=1:0:0 / 
Language                                 : English
Default                                  : Yes
Forced                                   : No
Matrix coefficients                      : BT.709

Audio
ID                                       : 2
Format                                   : AC-3
Format/Info                              : Audio Coding 3
Mode extension                           : CM (complete main)
Format settings, Endianness              : Big
Codec ID                                 : A_AC3
Duration                                 : 44mn 32s
Bit rate mode                            : Constant
Bit rate                                 : 384 Kbps
Channel(s)                               : 6 channels
Channel positions                        : Front: L C R, Side: L R, LFE
Sampling rate                            : 48.0 KHz
Bit depth                                : 16 bits
Compression mode                         : Lossy
Stream size                              : 122 MiB (14%)
Default                                  : Yes
Forced                                   : No

Text
ID                                       : 3
Format                                   : UTF-8
Codec ID                                 : S_TEXT/UTF8
Codec ID/Info                            : UTF-8 Plain Text
Default                                  : Yes
Forced                                   : No
 
http://bayimg.com/FAkOnaaEg 
http://bayimg.com/FAkOoaAeG 
http://bayimg.com/fAkOpAaeg 
http://bayimg.com/GakoaaAEg


Oversattaresida : www.swesub.nu
Oversattare: SSG - SweSUB Group Macchiavelli 
Synkare: N/A

Kalla: Vikings.S01E01.720p.HDTV.x264-2HD  

Torrenten skapat av Svennen med inbränd swesub.